HIERARCHY
ROOT Hips
{
	OFFSET 0.000000 83.214638 0.000000
	CHANNELS 6 Xposition Yposition Zposition Xrotation Yrotation Zrotation
	JOINT Pelvis
	{
		OFFSET 0.000000 0.000000 0.000000
		CHANNELS 3 Xrotation Yrotation Zrotation
		JOINT LeftUpLeg
		{
			OFFSET 8.479700 -4.795502 -0.379100
			CHANNELS 3 Xrotation Yrotation Zrotation
			JOINT LeftLeg
			{
				OFFSET 0.024144 -32.555107 0.112900
				CHANNELS 3 Xrotation Yrotation Zrotation
				JOINT LeftFoot
				{
					OFFSET -0.024144 -32.638630 -3.012600
					CHANNELS 3 Xrotation Yrotation Zrotation
					JOINT LeftToeBase
					{
						OFFSET 0.970200 -13.225400 11.864200
						CHANNELS 3 Xrotation Yrotation Zrotation
						End Site
						{
							OFFSET 0.000000 12.319262 0.000000
						}
					}
					JOINT LFootTongue
					{
						OFFSET 1.142400 -1.059800 6.665200
						CHANNELS 3 Xrotation Yrotation Zrotation
						End Site
						{
							OFFSET 0.000000 12.319262 0.000000
						}
					}
				}
				JOINT LeftPantLeg
				{
					OFFSET 0.918482 -16.533964 -2.284700
					CHANNELS 3 Xrotation Yrotation Zrotation
					End Site
					{
						OFFSET 0.350399 24.744368 0.000000
					}
				}
			}
		}
		JOINT RightUpLeg
		{
			OFFSET -8.479700 -4.795502 -0.379100
			CHANNELS 3 Xrotation Yrotation Zrotation
			JOINT RightLeg
			{
				OFFSET -0.023144 -32.555092 0.112900
				CHANNELS 3 Xrotation Yrotation Zrotation
				JOINT RightFoot
				{
					OFFSET 0.023144 -32.638641 -3.012700
					CHANNELS 3 Xrotation Yrotation Zrotation
					JOINT RightToeBase
					{
						OFFSET -0.970200 -13.225400 11.864200
						CHANNELS 3 Xrotation Yrotation Zrotation
						End Site
						{
							OFFSET 0.000000 12.319244 0.000000
						}
					}
					JOINT RFootTongue
					{
						OFFSET -1.142200 -1.059800 6.665200
						CHANNELS 3 Xrotation Yrotation Zrotation
						End Site
						{
							OFFSET 0.000000 12.319243 0.000000
						}
					}
				}
				JOINT RightPantLeg
				{
					OFFSET -0.919482 -16.533978 -2.284800
					CHANNELS 3 Xrotation Yrotation Zrotation
					End Site
					{
						OFFSET -0.350400 24.744419 0.000000
					}
				}
			}
		}
	}
	JOINT Spine
	{
		OFFSET 0.000000 7.722000 1.166200
		CHANNELS 3 Xrotation Yrotation Zrotation
		JOINT Spine1
		{
			OFFSET 0.000000 12.024101 0.248800
			CHANNELS 3 Xrotation Yrotation Zrotation
			JOINT Spine2
			{
				OFFSET 0.000000 11.502998 -0.491200
				CHANNELS 3 Xrotation Yrotation Zrotation
				JOINT Neck
				{
					OFFSET 0.000000 18.430702 -3.123100
					CHANNELS 3 Xrotation Yrotation Zrotation
					JOINT Head
					{
						OFFSET 0.000000 9.051102 1.034000
						CHANNELS 3 Xrotation Yrotation Zrotation
						JOINT HairB
						{
							OFFSET 0.208400 24.786102 24.822300
							CHANNELS 3 Xrotation Yrotation Zrotation
							End Site
							{
								OFFSET 0.000000 32.263779 0.000000
							}
						}
						JOINT HairA
						{
							OFFSET -7.081100 24.428299 23.196600
							CHANNELS 3 Xrotation Yrotation Zrotation
							End Site
							{
								OFFSET 0.000000 32.263779 0.000000
							}
						}
						JOINT Hat
						{
							OFFSET 16.728800 15.048294 -15.439601
							CHANNELS 3 Xrotation Yrotation Zrotation
							End Site
							{
								OFFSET 0.000000 32.263779 0.000000
							}
						}
					}
				}
				JOINT LeftShoulder
				{
					OFFSET 6.197800 13.665199 -4.064700
					CHANNELS 3 Xrotation Yrotation Zrotation
					JOINT LeftArm
					{
						OFFSET 7.778100 -0.187103 -1.709300
						CHANNELS 3 Xrotation Yrotation Zrotation
						JOINT LeftForeArm
						{
							OFFSET 22.049376 0.000000 0.000000
							CHANNELS 3 Xrotation Yrotation Zrotation
							JOINT LeftHand
							{
								OFFSET 23.009392 0.000000 0.000000
								CHANNELS 3 Xrotation Yrotation Zrotation
								JOINT LeftHandThumb1
								{
									OFFSET 3.507191 -2.063065 3.133727
									CHANNELS 3 Xrotation Yrotation Zrotation
									JOINT LeftHandThumb2
									{
										OFFSET 3.101337 -1.790558 1.790558
										CHANNELS 3 Xrotation Yrotation Zrotation
										JOINT LeftHandThumb3
										{
											OFFSET 3.058640 -1.765907 1.765906
											CHANNELS 3 Xrotation Yrotation Zrotation
											End Site
											{
												OFFSET -0.415260 3.926476 -0.049563
											}
										}
									}
								}
								JOINT LeftHandIndex1
								{
									OFFSET 11.334419 -0.901459 3.706815
									CHANNELS 3 Xrotation Yrotation Zrotation
									JOINT LeftHandIndex2
									{
										OFFSET 3.283112 0.000000 0.000000
										CHANNELS 3 Xrotation Yrotation Zrotation
										JOINT LeftHandIndex3
										{
											OFFSET 3.323853 0.000000 0.000000
											CHANNELS 3 Xrotation Yrotation Zrotation
											End Site
											{
												OFFSET -1.135597 3.097809 0.402452
											}
										}
									}
								}
								JOINT LeftHandMiddle1
								{
									OFFSET 11.335861 0.000000 0.000000
									CHANNELS 3 Xrotation Yrotation Zrotation
									JOINT LeftHandMiddle2
									{
										OFFSET 3.410492 0.000000 0.000000
										CHANNELS 3 Xrotation Yrotation Zrotation
										JOINT LeftHandMiddle3
										{
											OFFSET 3.312172 0.000000 0.000000
											CHANNELS 3 Xrotation Yrotation Zrotation
											End Site
											{
												OFFSET -1.150200 3.080154 0.400270
											}
										}
									}
								}
								JOINT LeftHandRing1
								{
									OFFSET 11.514786 -0.013176 -3.003090
									CHANNELS 3 Xrotation Yrotation Zrotation
									JOINT LeftHandRing2
									{
										OFFSET 3.053307 0.000000 0.000000
										CHANNELS 3 Xrotation Yrotation Zrotation
										JOINT LeftHandRing3
										{
											OFFSET 3.295807 0.000000 0.000000
											CHANNELS 3 Xrotation Yrotation Zrotation
											End Site
											{
												OFFSET -1.281006 3.013344 0.375733
											}
										}
									}
								}
								JOINT LeftHandPinky1
								{
									OFFSET 10.518692 -0.960396 -5.730441
									CHANNELS 3 Xrotation Yrotation Zrotation
									JOINT LeftHandPinky2
									{
										OFFSET 2.861649 0.000000 0.000000
										CHANNELS 3 Xrotation Yrotation Zrotation
										JOINT LeftHandPinky3
										{
											OFFSET 2.863380 0.000000 0.000000
											CHANNELS 3 Xrotation Yrotation Zrotation
											End Site
											{
												OFFSET -0.843597 2.711159 0.369971
											}
										}
									}
								}
							}
							JOINT LSleeve
							{
								OFFSET 6.676277 -0.344902 -1.011730
								CHANNELS 3 Xrotation Yrotation Zrotation
								End Site
								{
									OFFSET 0.000000 14.885353 0.000000
								}
							}
						}
					}
				}
				JOINT RightShoulder
				{
					OFFSET -6.197800 13.665199 -4.064700
					CHANNELS 3 Xrotation Yrotation Zrotation
					JOINT RightArm
					{
						OFFSET -7.778100 -0.187103 -1.709300
						CHANNELS 3 Xrotation Yrotation Zrotation
						JOINT RightForeArm
						{
							OFFSET -22.049376 0.000000 0.000000
							CHANNELS 3 Xrotation Yrotation Zrotation
							JOINT RightHand
							{
								OFFSET -23.009392 0.000000 0.000000
								CHANNELS 3 Xrotation Yrotation Zrotation
								JOINT RightHandThumb1
								{
									OFFSET -3.507191 -2.063065 3.133727
									CHANNELS 3 Xrotation Yrotation Zrotation
									JOINT RightHandThumb2
									{
										OFFSET -3.101337 -1.790558 1.790558
										CHANNELS 3 Xrotation Yrotation Zrotation
										JOINT RightHandThumb3
										{
											OFFSET -3.058640 -1.765907 1.765906
											CHANNELS 3 Xrotation Yrotation Zrotation
											End Site
											{
												OFFSET 0.415260 3.926476 -0.049563
											}
										}
									}
								}
								JOINT RightHandIndex1
								{
									OFFSET -11.334419 -0.901459 3.706815
									CHANNELS 3 Xrotation Yrotation Zrotation
									JOINT RightHandIndex2
									{
										OFFSET -3.283112 0.000000 0.000000
										CHANNELS 3 Xrotation Yrotation Zrotation
										JOINT RightHandIndex3
										{
											OFFSET -3.323853 0.000000 0.000000
											CHANNELS 3 Xrotation Yrotation Zrotation
											End Site
											{
												OFFSET 1.135597 3.097809 0.402452
											}
										}
									}
								}
								JOINT RightHandMiddle1
								{
									OFFSET -11.335861 0.000000 0.000000
									CHANNELS 3 Xrotation Yrotation Zrotation
									JOINT RightHandMiddle2
									{
										OFFSET -3.410492 0.000000 0.000000
										CHANNELS 3 Xrotation Yrotation Zrotation
										JOINT RightHandMiddle3
										{
											OFFSET -3.312172 0.000000 0.000000
											CHANNELS 3 Xrotation Yrotation Zrotation
											End Site
											{
												OFFSET 1.150200 3.080154 0.400270
											}
										}
									}
								}
								JOINT RightHandRing1
								{
									OFFSET -11.514786 -0.013176 -3.003090
									CHANNELS 3 Xrotation Yrotation Zrotation
									JOINT RightHandRing2
									{
										OFFSET -3.053307 0.000000 0.000000
										CHANNELS 3 Xrotation Yrotation Zrotation
										JOINT RightHandRing3
										{
											OFFSET -3.295807 0.000000 0.000000
											CHANNELS 3 Xrotation Yrotation Zrotation
											End Site
											{
												OFFSET 1.281006 3.013344 0.375733
											}
										}
									}
								}
								JOINT RightHandPinky1
								{
									OFFSET -10.518692 -0.960396 -5.730441
									CHANNELS 3 Xrotation Yrotation Zrotation
									JOINT RightHandPinky2
									{
										OFFSET -2.861649 0.000000 0.000000
										CHANNELS 3 Xrotation Yrotation Zrotation
										JOINT RightHandPinky3
										{
											OFFSET -2.863380 0.000000 0.000000
											CHANNELS 3 Xrotation Yrotation Zrotation
											End Site
											{
												OFFSET 0.843597 2.711159 0.369971
											}
										}
									}
								}
							}
							JOINT RSleeve
							{
								OFFSET -6.676277 -0.344902 -1.011730
								CHANNELS 3 Xrotation Yrotation Zrotation
								End Site
								{
									OFFSET 0.000000 14.885353 0.000000
								}
							}
						}
					}
				}
				JOINT Backpack
				{
					OFFSET 0.000000 -2.471497 36.677502
					CHANNELS 3 Xrotation Yrotation Zrotation
					End Site
					{
						OFFSET 0.000000 20.427315 0.000000
					}
				}
				JOINT Hood
				{
					OFFSET 0.000000 18.754097 -10.431000
					CHANNELS 3 Xrotation Yrotation Zrotation
					JOINT Hood1
					{
						OFFSET 0.000000 -5.011002 -7.685901
						CHANNELS 3 Xrotation Yrotation Zrotation
						End Site
						{
							OFFSET 0.000000 9.175140 0.000000
						}
					}
				}
				JOINT LHoodieString
				{
					OFFSET 5.250500 16.397697 3.089900
					CHANNELS 3 Xrotation Yrotation Zrotation
					JOINT LHoodieString1
					{
						OFFSET 0.257700 -6.364304 3.694600
						CHANNELS 3 Xrotation Yrotation Zrotation
						JOINT LHoodieString2
						{
							OFFSET 0.000000 -9.643799 2.679100
							CHANNELS 3 Xrotation Yrotation Zrotation
							End Site
							{
								OFFSET 0.000000 10.009018 0.000000
							}
						}
					}
				}
				JOINT RHoodieString
				{
					OFFSET -5.250500 16.397697 3.089900
					CHANNELS 3 Xrotation Yrotation Zrotation
					JOINT RHoodieString1
					{
						OFFSET -0.257700 -6.364304 3.694600
						CHANNELS 3 Xrotation Yrotation Zrotation
						JOINT RHoodieString2
						{
							OFFSET 0.000000 -9.643799 2.679100
							CHANNELS 3 Xrotation Yrotation Zrotation
							End Site
							{
								OFFSET 0.000000 10.009018 0.000000
							}
						}
					}
				}
			}
			JOINT LBackpack_Strap
			{
				OFFSET 15.223200 -7.719803 -6.610900
				CHANNELS 3 Xrotation Yrotation Zrotation
				End Site
				{
					OFFSET 0.000000 16.040596 0.000000
				}
			}
			JOINT RBackpack_Strap
			{
				OFFSET -15.223000 -7.719803 -6.610900
				CHANNELS 3 Xrotation Yrotation Zrotation
				End Site
				{
					OFFSET 0.000000 16.040596 0.000000
				}
			}
		}
	}
	JOINT BoyFacialAnim_Joint
	{
		OFFSET 1.000000 -82.208099 -1.550900
		CHANNELS 3 Xrotation Yrotation Zrotation
		End Site
		{
			OFFSET 0.000000 30.012791 0.000000
		}
	}
}
MOTION
Frames: 4
Frame Time: 0.033333
-2.559901 63.086777 19.768141 8.944179 1.826942 1.980974 -0.000001 0.000000 0.000000 -58.848090 2.924193 2.446470 81.559268 -25.768963 -11.149725 -28.476712 -7.128524 19.986723 0.000000 -0.000000 -0.000000 0.000000 -0.000000 -0.000000 -0.000001 0.000002 0.000001 13.290346 4.746785 -10.317585 43.833333 3.562022 -9.142596 -33.490528 8.573633 4.969591 -0.000005 0.000001 0.000001 -0.000005 0.000001 0.000001 -0.000001 0.000001 0.000001 13.881476 -0.216446 -2.410768 13.803047 -0.560819 -4.711212 13.825534 -0.560629 -4.710754 -13.365173 -9.426230 15.947534 -26.423710 8.691405 -2.744173 -0.000000 -0.000000 -0.000000 -0.000000 -0.000000 -0.000000 -0.000000 -0.000000 -0.000000 25.707767 -35.972632 39.407982 -60.885645 -43.272261 -14.930225 -89.146085 -3.740901 -25.911849 -70.906817 -19.605382 36.115803 -18.671205 -33.116715 18.656083 2.373381 19.986138 -2.038327 0.000002 -0.000001 0.000002 9.450935 -26.648193 17.839737 -0.032641 0.207195 -0.226602 -0.000001 0.000001 -0.000003 7.898928 -22.990818 -3.936747 0.013381 0.546409 -3.364892 0.000000 0.000000 -0.000001 5.042624 -6.923073 -32.568398 -0.014364 0.304355 -26.272975 -0.000001 0.000000 -0.000004 8.839469 7.138057 -42.885795 0.075619 0.252854 -34.971791 0.000001 0.000001 -0.000000 0.000001 0.000001 -0.000002 21.706495 27.692592 -44.055724 -72.357699 30.076417 13.167230 -149.442982 153.069211 165.689338 -2.263508 -15.689667 -31.925544 -11.338156 14.960892 -12.803296 1.383841 -17.412836 3.016270 -0.000000 0.000000 0.000000 9.224023 -1.647594 3.226982 0.008415 -0.222140 2.643772 0.000001 0.000002 0.000006 9.459298 -17.474971 5.675246 0.023579 -0.568504 4.888463 0.000001 0.000001 0.000003 10.132693 -26.169866 21.344642 -0.009643 -0.245863 18.769037 -0.000001 -0.000000 0.000002 19.502905 -24.838374 44.819998 0.077978 -0.244228 33.633033 0.000001 -0.000000 0.000000 0.000002 -0.000001 0.000001 -0.000002 -0.000000 -0.000000 -0.000002 -0.000000 -0.000000 -0.000002 -0.000000 -0.000000 -0.000002 -0.000000 -0.000000 -0.000002 -0.000000 -0.000000 -0.000001 -0.000000 -0.000000 -0.000002 -0.000000 -0.000000 -0.000002 -0.000000 -0.000000 -0.000001 -0.000000 -0.000000 -0.000001 0.000000 0.000000 -0.000001 0.000000 0.000000 -0.000001 0.000000 0.000000 
-2.641144 63.074089 19.675848 8.806120 1.490161 1.975085 0.000001 0.000000 0.000000 -58.785191 2.967406 2.560043 81.746552 -25.540413 -10.944075 -28.670563 -6.977906 19.750947 0.000000 -0.000002 -0.000000 0.000000 -0.000002 -0.000000 0.000001 0.000003 0.000003 13.285295 4.685696 -10.336801 43.901905 3.646991 -9.210870 -33.669800 8.850021 4.405559 0.000001 0.000000 -0.000000 0.000001 0.000000 -0.000000 -0.000003 -0.000000 0.000000 13.868504 -0.235007 -2.412751 13.776317 -0.597500 -4.720162 13.798804 -0.597310 -4.719710 -13.111088 -9.688363 16.497164 -26.547081 9.000556 -2.946471 0.000001 0.000000 0.000000 0.000001 0.000000 0.000000 0.000001 0.000000 0.000000 25.565432 -36.438783 39.058027 -60.252623 -42.953871 -14.268210 -89.071056 -3.765978 -26.867724 -70.711500 -19.969187 36.169895 -18.413205 -32.263611 19.414999 2.373384 19.986138 -2.038325 0.000002 0.000000 -0.000001 9.924902 -26.568577 18.451266 -0.032295 0.206597 -0.174305 -0.000001 0.000001 -0.000005 8.188376 -21.096696 -2.754700 0.010767 0.541948 -2.382226 0.000001 -0.000000 0.000004 5.591614 -5.513080 -31.482548 -0.020808 0.297848 -25.430092 0.000001 -0.000001 -0.000000 9.355217 8.262721 -42.476123 0.074167 0.256476 -34.656110 -0.000001 0.000001 -0.000000 0.000001 0.000001 -0.000001 21.707535 27.524079 -44.001260 -73.421822 30.894144 14.237500 -149.380909 153.905909 165.673765 -2.194377 -15.385057 -32.291003 -11.352280 14.939073 -12.891235 1.383815 -17.412847 3.016311 0.000001 -0.000001 -0.000001 9.204219 -2.018054 2.962468 0.009569 -0.221683 2.429153 -0.000001 -0.000001 0.000005 9.467630 -17.806812 5.624151 0.022656 -0.569616 4.859673 0.000000 -0.000001 -0.000000 10.122149 -26.229277 21.653125 -0.008290 -0.249558 19.029981 0.000001 0.000000 0.000002 19.905490 -24.676681 45.779520 0.082060 -0.243896 34.187105 0.000000 -0.000002 0.000002 0.000001 -0.000004 -0.000001 0.000001 -0.000000 0.000000 0.000001 -0.000000 0.000000 0.000001 -0.000000 0.000000 0.000001 -0.000000 0.000000 0.000001 -0.000000 -0.000000 0.000003 -0.000001 0.000001 0.000001 -0.000000 0.000000 0.000001 -0.000000 -0.000000 0.000003 -0.000001 0.000001 0.000001 -0.000000 -0.000000 0.000001 -0.000000 -0.000000 0.000001 0.000000 0.000000 
-2.720511 63.013496 19.625181 8.686002 1.491507 1.903225 -0.000001 -0.000000 -0.000000 -58.822634 2.776738 2.327483 82.100807 -25.209004 -10.624025 -28.932989 -6.827099 19.501467 -0.000000 0.000000 -0.000000 -0.000000 0.000000 -0.000000 -0.000000 0.000001 0.000002 13.455383 4.437131 -10.212362 43.795012 3.633562 -9.192630 -33.909751 9.100438 3.890740 0.000002 -0.000000 0.000000 0.000002 -0.000000 0.000000 0.000001 0.000000 -0.000000 13.849584 -0.168494 -2.444703 13.741409 -0.468182 -4.794403 13.763873 -0.467995 -4.793948 -12.961571 -9.979747 16.866133 -26.742173 9.056411 -3.065509 0.000001 0.000000 0.000000 0.000001 0.000000 0.000000 0.000001 0.000000 0.000000 25.322653 -36.934422 38.561899 -60.178372 -42.628061 -14.192950 -88.676155 -3.991729 -27.691006 -70.677384 -19.626103 36.766690 -18.342324 -31.931227 20.084952 2.373381 19.986138 -2.038326 0.000000 -0.000002 0.000003 10.585780 -26.432388 19.208041 -0.031975 0.206276 -0.134893 -0.000000 0.000001 -0.000002 8.438644 -18.633376 -1.596230 0.006665 0.536089 -1.415397 0.000001 -0.000002 0.000005 6.154399 -3.914750 -30.531700 -0.025189 0.293542 -24.697978 0.000001 -0.000000 -0.000000 9.801212 9.241915 -42.370583 0.073761 0.259046 -34.583775 -0.000000 0.000001 -0.000000 0.000001 0.000000 -0.000000 21.494942 26.929653 -43.962519 -74.014068 31.252524 14.728229 -150.704955 155.279638 166.435591 -2.129123 -15.053493 -32.820896 -10.860494 13.893179 -12.398107 1.383850 -17.412908 3.016311 -0.000001 -0.000000 0.000002 9.337180 -3.005837 4.050772 0.002437 -0.226384 3.308030 -0.000001 0.000001 0.000005 9.620194 -19.180793 6.153550 0.029174 -0.568615 5.316855 0.000002 0.000000 -0.000002 9.724221 -26.357473 21.418727 -0.006793 -0.251671 18.984154 0.000000 -0.000001 0.000002 19.777685 -24.727814 45.482458 0.081023 -0.244644 33.728447 0.000001 0.000000 0.000002 0.000001 -0.000004 0.000002 0.000002 0.000000 0.000001 0.000002 0.000000 0.000001 0.000002 0.000000 0.000001 0.000002 0.000000 0.000001 0.000002 0.000000 0.000000 0.000003 0.000000 -0.000000 0.000002 0.000000 0.000001 0.000002 0.000000 0.000000 0.000003 0.000000 -0.000000 -0.000000 0.000000 0.000000 -0.000000 0.000000 0.000000 -0.000001 -0.000000 -0.000000 
-2.815358 62.910095 19.571011 8.522668 1.649973 2.038284 -0.000001 0.000000 -0.000000 -58.814008 2.690152 1.891854 82.407674 -24.897151 -10.389837 -29.141873 -6.710596 19.389990 -0.000000 0.000002 -0.000000 -0.000000 0.000002 0.000000 -0.000005 0.000001 0.000001 13.489896 4.189874 -10.260320 44.220065 3.769457 -9.153143 -34.224394 9.335974 3.428121 -0.000000 -0.000001 0.000000 -0.000000 -0.000001 0.000000 0.000001 -0.000001 0.000001 13.814807 -0.210957 -2.448673 13.669571 -0.552634 -4.804649 13.692053 -0.552445 -4.804201 -13.748814 -9.831226 16.598140 -26.472485 9.149314 -3.156735 0.000000 0.000000 -0.000000 0.000000 0.000000 -0.000000 0.000000 0.000000 -0.000000 25.345502 -36.708285 38.753172 -59.550685 -42.322103 -13.602167 -88.778293 -3.612872 -27.365761 -70.575853 -19.578184 37.225952 -18.244672 -31.607988 20.252336 2.373380 19.986138 -2.038326 0.000001 -0.000001 0.000001 10.777271 -26.276754 18.682260 -0.032859 0.206542 -0.243034 0.000000 0.000001 0.000000 8.359489 -17.284125 -2.196862 0.008441 0.538919 -1.876653 -0.000000 0.000001 0.000000 6.406438 -2.924387 -31.045057 -0.023981 0.298229 -25.134861 -0.000000 -0.000001 -0.000000 10.049397 9.757649 -42.974222 0.076268 0.259783 -35.079059 -0.000001 0.000001 -0.000000 0.000000 0.000001 0.000001 20.921337 25.956365 -43.700981 -74.777799 32.411881 15.710898 -151.277297 156.609407 166.998453 -2.093270 -14.736488 -33.420717 -10.289722 12.863852 -11.613314 1.383835 -17.412881 3.016322 0.000002 -0.000001 -0.000003 9.566852 -4.197526 5.741152 -0.009151 -0.233642 4.672433 -0.000004 -0.000004 0.000008 9.885371 -20.675281 7.202682 0.042793 -0.564917 6.193701 0.000001 0.000000 0.000001 9.325958 -26.560888 21.561167 -0.003530 -0.248458 19.249952 0.000001 0.000001 0.000004 19.886950 -24.683404 45.734356 0.082514 -0.242851 33.504445 0.000001 0.000000 0.000000 0.000001 -0.000001 0.000000 0.000000 0.000000 0.000000 0.000000 0.000000 0.000000 0.000000 0.000000 0.000000 0.000000 0.000000 0.000000 0.000000 0.000000 0.000000 0.000002 -0.000001 -0.000000 0.000000 0.000000 0.000000 0.000000 0.000000 0.000000 0.000002 -0.000001 -0.000000 0.000004 -0.000000 0.000000 0.000004 -0.000000 0.000000 -0.000001 0.000000 -0.000000 
